<?xml version="1.0" encoding="UTF-8" standalone="no"?>
<!-- Uploaded to: SVG Repo, www.svgrepo.com, Generator: SVG Repo Mixer Tools -->
<svg width="800px" height="800px" viewBox="-5 0 63 63" version="1.1" xmlns="http://www.w3.org/2000/svg" xmlns:xlink="http://www.w3.org/1999/xlink" xmlns:sketch="http://www.bohemiancoding.com/sketch/ns">
    
    <title>Wave-signal-2</title>
    <desc>Created with Sketch.</desc>
    <defs>
</defs>
    <g id="Page-1" stroke="none" stroke-width="1" fill="none" fill-rule="evenodd" sketch:type="MSPage">
        <g id="Wave-signal-2" sketch:type="MSLayerGroup" transform="translate(1.000000, 1.000000)" stroke="#6B6C6E" stroke-width="2">
            <path d="M34.5,8.9 C39.2,12 42,17.2 42,23.2 C42,28.8 39.5,33.8 35.3,36.9" id="Shape" sketch:type="MSShapeGroup">
</path>
            <path d="M14.8,37 C10.6,33.9 8,28.9 8,23.3 C8,17.3 11,12 15.6,9" id="Shape" sketch:type="MSShapeGroup">
</path>
            <path d="M27,28.9 C28.7,28 29.9,26.2 29.9,24.2 C29.9,21.3 27.6,18.9 24.8,18.9 C22,18.9 19.9,21.3 19.9,24.2 C19.9,26.3 21.2,28.1 22.8,29 C19,33.7 15.9,48.5 15.9,52.8 C15.9,57.9 20.1,61 25,61 C29.9,61 33.9,58 33.9,52.9 C34,48.6 30.8,33.6 27,28.9 L27,28.9 Z" id="Shape" sketch:type="MSShapeGroup">
</path>
            <path d="M12.7,44.8 C5.1,40.6 0,32.6 0,23.3 C0,12.4 7.1,3.2 16.9,0" id="Shape" sketch:type="MSShapeGroup">
</path>
            <path d="M34.2,0 C43.9,3.2 51,12.4 51,23.3 C51,32.5 46,40.5 38.5,44.7" id="Shape" sketch:type="MSShapeGroup">
</path>
        </g>
    </g>
</svg>