
<svg version="1.1" id="Layer_1" xmlns="http://www.w3.org/2000/svg" xmlns:xlink="http://www.w3.org/1999/xlink" x="0px" y="0px"
	 width="100%" viewBox="0 0 992 992" enable-background="new 0 0 992 992" xml:space="preserve">
<path fill="#E0E1DD" opacity="1.000000" stroke="none" 
	d="
M263.014648,732.242798 
	C232.723404,732.693237 209.693939,720.869873 195.915192,693.965759 
	C175.512115,654.127136 199.757858,605.221497 243.678223,596.700012 
	C250.566574,595.363525 257.532806,595.071899 264.525146,595.003174 
	C266.647034,594.982300 268.861908,595.456421 271.334991,593.971802 
	C239.539047,523.523621 239.198395,452.874298 271.449402,382.469086 
	C269.436615,380.330292 267.152618,381.064178 265.098022,381.055084 
	C253.617035,381.004272 242.147644,381.161316 230.853882,378.411957 
	C205.215515,372.170593 184.978348,349.912933 180.562744,323.957001 
	C174.968323,291.071777 193.223373,261.644348 219.959747,249.914597 
	C229.841522,245.579315 240.280060,243.742447 251.064926,243.743317 
	C408.378540,243.756012 565.692200,243.769089 723.005798,243.726105 
	C730.396912,243.724091 737.579407,244.745224 744.710999,246.552948 
	C770.924133,253.197540 790.795044,276.857025 794.561646,303.638245 
	C799.396790,338.016876 775.129089,374.910950 734.906189,380.097229 
	C727.705017,381.025757 720.376648,380.968262 712.191162,381.416107 
	C744.540527,452.461731 744.638672,523.103394 712.515198,593.515137 
	C714.660217,595.801331 717.134705,594.963135 719.332764,594.979858 
	C732.644470,595.081238 746.078674,594.448364 758.816711,599.246094 
	C783.206848,608.432495 798.656860,625.865234 803.134338,651.514954 
	C809.751953,689.425110 786.720398,722.725220 749.322266,730.741516 
	C744.130249,731.854370 738.808472,732.260254 733.452148,732.259277 
	C576.805359,732.229736 420.158539,732.239197 263.014648,732.242798 
M621.500000,615.226624 
	C579.669067,615.228027 537.838074,615.190002 496.007263,615.263672 
	C487.484863,615.278687 479.010773,614.589417 470.675873,613.121582 
	C403.506653,601.292542 358.349731,540.710083 365.620544,474.464508 
	C369.193542,441.910553 383.501068,414.860199 407.887054,393.114563 
	C412.282532,389.194977 416.999146,385.635529 421.655365,381.838165 
	C420.046204,380.624908 418.514374,381.000793 417.064362,381.000153 
	C396.565613,380.990784 376.066833,381.005768 355.568085,381.007050 
	C336.902527,381.008209 318.236938,381.012085 299.571442,380.983307 
	C296.623566,380.978760 294.196930,381.283691 292.573212,384.461914 
	C269.136597,430.336212 261.564301,478.636871 271.025269,529.290161 
	C280.090698,577.826111 302.980591,619.008972 339.256439,652.514221 
	C380.975800,691.047180 430.512878,711.533203 487.181152,712.397583 
	C552.328857,713.391357 617.503296,712.643616 682.666138,712.615479 
	C684.039551,712.614868 685.665833,713.255798 686.651001,711.911133 
	C661.010132,679.802795 660.716614,647.806519 687.002075,615.227295 
	C665.076721,615.227295 643.788330,615.227295 621.500000,615.226624 
M610.868042,533.194458 
	C601.058838,558.532593 584.426331,578.516479 561.542786,594.471558 
	C563.358765,594.770325 564.002625,594.968628 564.646606,594.968994 
	C604.970093,594.991821 645.293518,594.985840 685.616943,595.035339 
	C688.292847,595.038574 689.884583,593.953430 691.098083,591.595459 
	C695.140930,583.739868 698.918152,575.763733 702.002991,567.488647 
	C713.727722,536.036499 718.790039,503.711670 715.915649,470.069397 
	C713.913757,446.637848 708.974548,424.001129 699.794006,402.454620 
	C675.762329,346.052399 635.277100,305.721375 579.153320,281.247101 
	C551.022156,268.979736 521.297607,263.558411 490.718048,263.437988 
	C428.067261,263.191254 365.414948,263.334930 302.763245,263.352600 
	C301.006409,263.353119 299.141968,262.882812 297.252716,264.020050 
	C322.956299,296.002136 323.204010,328.051086 297.527588,360.181122 
	C299.244690,361.288666 301.111786,360.742401 302.863312,360.743530 
	C364.848480,360.782654 426.833740,360.740204 488.818848,360.813385 
	C511.855377,360.840576 533.700012,365.883026 553.954773,377.131470 
	C607.099060,406.645111 633.350281,472.279480 610.868042,533.194458 
M583.452454,432.019196 
	C556.731262,390.945251 510.891266,372.276306 464.985321,384.330566 
	C409.517426,398.895752 377.933411,451.750580 385.603516,503.494690 
	C393.634125,557.671143 441.436737,596.767578 493.562958,595.177307 
	C520.168274,594.365662 543.398804,585.606262 563.152405,567.998169 
	C586.038452,547.597961 598.466736,521.757446 599.415588,491.191284 
	C600.060852,470.404266 594.775940,450.626770 583.452454,432.019196 
M711.499023,263.365387 
	C671.145325,263.365387 630.791626,263.365387 589.059875,263.365387 
	C598.673584,268.456085 607.060608,272.512512 615.073669,277.207153 
	C649.296082,297.257202 677.196167,323.956421 698.500610,357.459167 
	C699.998535,359.814697 701.781250,360.879517 704.619019,360.825775 
	C712.278137,360.680603 719.942993,360.678589 727.603333,360.781769 
	C749.153381,361.071960 772.099670,343.702881 775.220520,317.894470 
	C777.542664,298.690735 767.509460,276.707458 745.415466,267.410980 
	C734.764404,262.929352 723.638428,263.329773 711.499023,263.365387 
M210.334061,677.137695 
	C217.420822,699.061401 235.695786,712.592957 258.725372,712.638184 
	C301.714142,712.722717 344.703217,712.662537 387.692169,712.645081 
	C389.609467,712.644348 391.526703,712.472168 394.628082,712.322876 
	C392.981598,711.406494 392.454773,711.062866 391.888763,710.805481 
	C347.308411,690.531677 311.848969,659.738464 285.497833,618.473145 
	C283.972809,616.085022 282.112946,615.157104 279.318665,615.205017 
	C271.822845,615.333496 264.322784,615.187195 256.825348,615.254883 
	C224.757492,615.544617 202.096756,645.246399 210.334061,677.137695 
M697.706909,693.773987 
	C714.378723,713.588684 738.519836,718.158020 760.425842,705.645203 
	C780.582825,694.131470 789.684814,669.929993 782.117737,647.968079 
	C774.603271,626.158813 751.577820,612.066467 729.007751,615.463013 
	C692.054260,621.024109 674.968201,662.892761 697.706909,693.773987 
M296.658661,316.141846 
	C296.807770,311.475250 296.526306,306.870422 295.652924,302.246948 
	C290.669037,275.863525 261.963379,258.093567 236.112839,265.050446 
	C212.132477,271.503998 195.028870,294.736511 200.149475,322.032654 
	C204.804977,346.849487 232.025146,365.720947 256.615387,360.057373 
	C279.595764,354.764587 292.845032,340.266876 296.658661,316.141846 
z"/>
</svg>