<?xml version="1.0" ?>
<svg fill="rgba(255,255,255,1)"  style="enable-background:new 0 0 52 52;" version="1.1" viewBox="0 0 52 52" xml:space="preserve" xmlns="http://www.w3.org/2000/svg" xmlns:xlink="http://www.w3.org/1999/xlink">
    <g>
        <g>
            <path class="st0" d="M6.7728295,3.2254758c7.2858825-0.1218109,14.5721092-0.2171681,21.8587627-0.278136    c3.4849014-0.0291584,6.9698639-0.051115,10.4548569-0.06583C43.1128922,2.8645084,48.1549377,1.832899,49.2290955,6.96767    c0.6775551,3.2388959-0.048584,7.4442449-0.0701332,10.746418c-0.0255051,3.9077892-0.0510101,7.8155785-0.0765114,11.7233658    c-0.0212555,3.2564926-0.0425072,6.5129814-0.0637589,9.7694702c-0.0112686,1.7264977,0.4259872,4.1690216-0.0382576,5.8616829    c-1.0823936,3.9464912-2.4513855,3.7942352-5.435463,3.9713249c-6.9448357,0.4121361-14.0137062,0.0884705-20.9729881,0.1324081    c-3.4954987,0.0220642-6.9909954,0.0441322-10.4864931,0.0662003c-5.2191715,0.0329514-8.6226854,0.135128-9.1812344-6.4407005    c-0.580776-6.8375053-0.0002666-13.9881191-0.0003974-20.856123c-0.0000722-3.7899456-0.0633135-7.5866213-0.0002167-11.3760681    c0.03181-1.9104424-0.1725559-4.6450067,0.9978552-6.1959634c1.5221508-2.0170598,4.0856886-1.6323087,6.2557096-1.6329479    c1.4477491-0.0004265,1.4501839-2.2504272,0-2.25C5.2366147,0.488187,2.1565337,0.5924026,0.9716166,6.0687084    c-1.4603689,6.7493544-0.3177805,14.690073-0.3176496,21.5610428c0.0000723,3.7920227,0.0001445,7.5840435,0.0002168,11.3760662    c0.0000523,2.7464905-0.7193065,6.6596222,0.5820706,9.2137222c2.3441987,4.6007538,9.6535044,3.2765503,13.7091885,3.250946    c7.9443121-0.0501518,15.8886251-0.1003075,23.8329391-0.1504631c3.6683083-0.023159,9.8603783,0.9211464,11.9479523-3.1523933    c1.2609215-2.4604759,0.5250359-6.306942,0.5423584-8.9607048c0.027626-4.2334366,0.0552559-8.4668732,0.0828857-12.7003117    s0.0552559-8.4668751,0.0828857-12.7003126c0.0184822-2.8315449,0.894146-7.2655687-0.2531815-9.9069347    c-2.1859932-5.0325685-11.8631592-3.2720652-15.8966293-3.2490342C25.7801361,0.7046025,16.2761536,0.8165919,6.7728295,0.9754757    C5.326509,0.9996564,5.3220229,3.2497313,6.7728295,3.2254758L6.7728295,3.2254758z"/></g><g><path class="st0" d="M23.8603725,17.5187912c1.6339588,0.5587234,3.4490147,1.4611797,5.0073853,2.2189331    c0.5591316,0.2718754,1.6314583,1.1571941,1.4873714,1.9164829c-0.0515957,0.2719021-0.9496098,0.6651382-1.1995201,0.8078861    c-1.2683678,0.7244854-2.6859894,1.2707443-4.0564213,1.7570724c-1.0088348,0.3580074-2.3830643,1.1367569-3.2535477,0.4405174    c-0.8852558-0.7080555-0.5219765-2.4182701-0.5163918-3.5160046c0.0053711-1.0563164-0.2617054-2.6114235,0.0497971-3.6165066    c0.5284863-1.7051907,2.0200939-0.5414333,3.119276,0.1532192c1.2276192,0.7758198,2.3578358-1.1704044,1.1356182-1.9428101    c-1.4116383-0.8921146-3.4548283-2.1290894-5.2067604-1.4599085c-1.6568108,0.6328478-1.2908688,2.7400656-1.3164711,4.1535368    c-0.0425625,2.3499336-0.5835876,5.5416451,0.2876377,7.7804489c0.6220207,1.5984249,2.1240959,1.3545399,3.5452194,1.0258503    c2.3928204-0.5534344,4.7790909-1.5258389,6.964304-2.640667c1.3523178-0.689909,2.8333607-1.635107,2.988512-3.2891903    c0.143364-1.5284634-0.9371777-2.689579-2.2442703-3.3017731c-0.9991493-0.4679661-2.0894585-0.6702595-3.0806866-1.1653786    c-1.0533428-0.526144-1.9926548-1.1082706-3.1129112-1.4913359C23.0854492,14.879653,22.4958706,17.0522079,23.8603725,17.5187912    L23.8603725,17.5187912z"/></g><g><path class="st0" d="M2.4668248,36.9122581c15.7708387,0.0165367,31.5416737,0.0330734,47.3125153,0.049614    c1.4478302,0.0015182,1.4500961-2.2484818,0-2.25c-15.7708397-0.0165405-31.5416756-0.0330772-47.3125153-0.049614    C1.0189933,34.6607399,1.0167263,36.9107361,2.4668248,36.9122581L2.4668248,36.9122581z"/></g><g><path class="st0" d="M13.4609737,42.7116623c1.5784988,1.1778908,0.0340414,4.4571953-1.6084127,2.9214554    c-0.6435165-0.6017036-0.7154026-1.6048431-0.6470976-2.4332428c0.0414581-0.5028038,0.0806141-1.252285,0.7501307-1.2546005    c0.3921862-0.0013542,1.0822153,0.5767593,1.3387127,0.8404579c1.0113964,1.0397987,2.6016293-0.5519714,1.5909901-1.5909882    c-1.4272394-1.4673195-4.1284018-2.3730049-5.3754091-0.200531c-1.0898666,1.8987122-0.7299862,4.9952774,0.965519,6.4212723    c1.7657633,1.4850883,3.9628954,0.8874435,5.2411613-0.8725243c1.3391438-1.8437881,0.6163673-4.4784317-1.119976-5.7741089    C13.4355183,39.9024506,12.3125868,41.8547249,13.4609737,42.7116623L13.4609737,42.7116623z"/></g><g><path class="st0" d="M15.0293093,44.927063c11.874999,0,23.75,0,35.625,0c1.4477692,0,1.4501648-2.25,0-2.25    c-11.875,0-23.75,0-35.625,0C13.5815411,42.677063,13.5791435,44.927063,15.0293093,44.927063L15.0293093,44.927063z"/></g><g><path class="st0" d="M2.6553032,44.8822021c2.2694042-0.1216507,4.5389977-0.1685333,6.8114777-0.1407089    c1.4483137,0.0177307,1.4491816-2.2322578,0-2.25c-2.2724924-0.0278244-4.5420861,0.0190582-6.8114777,0.1407089    C1.215018,42.7094078,1.2059463,44.9598961,2.6553032,44.8822021L2.6553032,44.8822021z"/>
            </g>
        </g>
</svg>